<svg width="1200" height="900" viewBox="0 0 1200 900" fill="none" xmlns="http://www.w3.org/2000/svg">
  <rect width="1200" height="900" fill="#F8FAFC"/>
  <rect x="84" y="90" width="1032" height="720" rx="40" fill="url(#paint0_linear)"/>
  <rect x="156" y="160" width="520" height="320" rx="28" fill="#0F172A"/>
  <rect x="192" y="198" width="448" height="28" rx="14" fill="#38BDF8" fill-opacity="0.9"/>
  <rect x="192" y="250" width="300" height="18" rx="9" fill="#CBD5E1"/>
  <rect x="192" y="288" width="360" height="18" rx="9" fill="#94A3B8"/>
  <rect x="192" y="346" width="150" height="56" rx="16" fill="#2563EB"/>
  <rect x="362" y="346" width="150" height="56" rx="16" fill="#E2E8F0"/>
  <rect x="734" y="170" width="310" height="220" rx="28" fill="#FFFFFF"/>
  <rect x="770" y="210" width="120" height="18" rx="9" fill="#2563EB"/>
  <rect x="770" y="250" width="208" height="16" rx="8" fill="#CBD5E1"/>
  <rect x="770" y="286" width="180" height="16" rx="8" fill="#CBD5E1"/>
  <rect x="770" y="322" width="132" height="44" rx="14" fill="#DBEAFE"/>
  <rect x="156" y="534" width="888" height="186" rx="28" fill="#FFFFFF"/>
  <rect x="202" y="580" width="252" height="20" rx="10" fill="#0F172A"/>
  <rect x="202" y="622" width="504" height="16" rx="8" fill="#CBD5E1"/>
  <rect x="202" y="656" width="446" height="16" rx="8" fill="#CBD5E1"/>
  <circle cx="950" cy="626" r="54" fill="#DBEAFE"/>
  <path d="M950 594C932.327 594 918 608.327 918 626C918 643.673 932.327 658 950 658C967.673 658 982 643.673 982 626C982 608.327 967.673 594 950 594ZM946 640L930 624L935.657 618.343L946 628.686L964.343 610.343L970 616L946 640Z" fill="#2563EB"/>
  <defs>
    <linearGradient id="paint0_linear" x1="84" y1="90" x2="1116" y2="810" gradientUnits="userSpaceOnUse">
      <stop stop-color="#EFF6FF"/>
      <stop offset="1" stop-color="#E2E8F0"/>
    </linearGradient>
  </defs>
</svg>
